<svg width="100" height="100" viewBox="0 0 100 100" fill="none" xmlns="http://www.w3.org/2000/svg">
<rect width="100" height="100" fill="white"/>
<path d="M83.4917 64.46C83.8117 62.24 83.8117 59.54 83.5117 57.48C83.3117 55.84 84.3517 55.12 85.9717 55.12C87.3717 55.12 88.3517 55.74 88.5317 57.08C88.8917 59.34 88.8917 62.46 88.5317 64.7C88.3517 66.02 87.3717 66.66 85.9717 66.66C84.3517 66.66 83.3117 65.94 83.4917 64.46ZM71.8517 63.6C71.5717 62.02 71.6117 59.44 71.8517 58.06C72.2117 56.12 73.0317 55.58 74.4517 55.32C75.6717 55.08 78.9717 55.06 80.1317 55.26C81.5317 55.46 82.4317 55.64 82.4317 56.8C82.4317 58.02 81.6117 58.42 80.1317 58.42H75.9717C75.3117 58.42 75.4317 59.2 76.1717 59.1C77.1117 58.96 78.5517 58.84 79.2117 58.84C81.2117 58.84 81.8917 59.06 81.9317 59.8C81.9517 60.74 81.3317 60.86 78.9917 60.94C77.7117 61 76.0517 61.3 75.0517 61.84C74.7117 62.02 74.9717 62.56 75.2517 62.4C76.5117 61.68 78.2717 61.28 80.1517 61.56C81.6117 61.78 82.7917 62.32 82.7717 63.78C82.7517 65.7 81.3117 66.38 77.9317 66.38C74.3717 66.38 72.2717 65.74 71.8517 63.6ZM72.3717 70.4C72.3717 67.94 74.7917 66.74 80.6517 66.74C86.5117 66.74 88.9317 67.94 88.9317 70.4C88.9317 72.9 86.9317 73.48 80.6517 73.48C74.3717 73.48 72.3717 72.9 72.3717 70.4ZM79.2117 70.52C80.1317 71 81.1917 70.98 82.1117 70.52C82.2517 70.44 82.3717 70.22 82.2917 70.02C82.2317 69.86 82.0317 69.74 81.8717 69.82C81.1317 70.22 80.1317 70.22 79.4117 69.8C79.2917 69.74 79.0917 69.78 78.9717 70C78.8717 70.18 78.9517 70.38 79.2117 70.52Z" fill="url(#paint0_linear_2_13)"/>
<path d="M53.9278 60.52C52.9878 60.38 52.1278 59.82 52.1278 58.72C52.1278 57.36 53.3478 56.6 54.4678 57.12C54.0878 56.84 54.0078 56.54 54.0078 56.26C54.0078 55.52 55.1078 55.02 56.7478 55.02C58.3678 55.02 59.4678 55.52 59.4678 56.26C59.4678 56.54 59.3878 56.84 59.0078 57.12C60.1078 56.6 61.3478 57.36 61.3478 58.72C61.3478 59.76 60.5478 60.32 59.6478 60.5C59.8278 61.22 60.1078 61.8 60.4078 62.42C60.9478 63.48 61.4878 64.6 61.3878 68.18C61.2678 72.1 60.7478 72.8 59.5878 72.8C58.1078 72.8 57.5878 72.18 57.5878 68.16C57.5878 66.62 57.4278 65.24 57.1878 64.26C57.0278 63.72 56.5278 63.88 56.6478 64.38C56.9078 65.28 57.1078 66.68 57.1078 68.46C57.1078 72.1 56.4878 72.72 54.6878 72.72C53.1678 72.72 52.2278 71.38 52.1478 68C52.0878 64.98 52.6678 63.74 53.3478 62.46C53.6678 61.86 53.8278 61.32 53.9278 60.52ZM65.8878 66.08C65.8478 67.76 65.7678 69.42 65.6478 71C65.5278 72.58 64.7678 73.36 63.6278 73.36C62.4078 73.36 61.5678 72.44 61.7478 70.68C62.1078 66.46 62.1278 62.22 61.7678 58.18C61.5878 56.2 62.4078 55.32 63.6278 55.32C64.7678 55.32 65.5278 56.1 65.6478 57.68C65.7278 58.68 65.7878 59.7 65.8278 60.74L66.6278 60.8C66.5878 59.86 66.5078 58.94 66.4278 58.02C66.2478 56.04 67.0678 55.1 68.3078 55.1C69.4078 55.1 70.1878 55.9 70.3278 57.54C70.6478 61.86 70.6478 66.74 70.3278 71.08C70.1878 72.68 69.4078 73.48 68.3078 73.48C67.0678 73.48 66.2278 72.56 66.4078 70.76C66.5478 69.18 66.6278 67.6 66.6678 66.02L65.8878 66.08Z" fill="url(#paint1_linear_2_13)"/>
<path d="M39.1639 59.12C39.3439 59.68 39.4039 60.46 39.3039 60.96C38.7639 61.14 38.3639 61.28 37.9639 61.5C37.7039 61.62 37.8639 62.02 38.1639 61.88C39.0239 61.46 39.9039 61.16 41.3639 61.14C41.5839 61.14 41.7839 61.14 41.9839 61.16C42.0039 59.42 42.5439 59.04 43.4239 59.06L45.7039 59.08C45.6639 58.54 45.6239 58 45.5439 57.48C45.3439 55.84 46.3839 55.12 48.0039 55.12C49.4039 55.12 50.3839 55.74 50.5639 57.08C50.9239 59.34 50.9239 62.06 50.5639 64.32C50.3839 65.66 49.4039 66.26 48.0039 66.26C46.3839 66.26 45.3439 65.56 45.5239 64.08C45.5639 63.86 45.5839 63.62 45.6039 63.4L44.7039 63.48C44.7239 64.52 43.9239 65.24 42.4239 65.58C41.2839 65.84 39.8439 65.9 38.4639 65.9C35.8839 65.9 34.6039 64.92 34.2839 63.5C33.9039 61.86 33.8639 59.44 34.2839 57.84C34.6639 56.4 35.7039 55.58 37.3839 55.44C38.8839 55.3 40.1239 55.28 41.6039 55.4C43.2839 55.5 44.2039 56 44.2039 57.2C44.2039 58.48 43.3839 59.12 41.6039 59.12H39.1639ZM34.3639 71.94C34.1039 70.92 34.1039 69 34.3239 68.06C34.5039 67.2 35.0039 66.94 36.0439 66.78C39.9639 66.24 45.0239 66.24 48.9239 66.78C49.9839 66.94 50.4639 67.2 50.6439 68.06C50.8439 69 50.8839 70.92 50.5839 71.94C50.3639 72.8 49.9839 73.1 48.9239 73.22C44.9639 73.62 40.0039 73.62 36.0439 73.22C35.0039 73.1 34.6039 72.8 34.3639 71.94ZM41.2439 69.74C41.1439 69.66 40.9039 69.72 40.8039 69.9C40.6839 70.1 40.7839 70.24 41.0639 70.4C41.9639 70.9 43.0239 70.88 43.9439 70.4C44.1039 70.3 44.2039 70.16 44.1439 69.96C44.0839 69.78 43.8839 69.66 43.7039 69.76C42.9839 70.16 41.9639 70.14 41.2439 69.74Z" fill="url(#paint2_linear_2_13)"/>
<path d="M27.76 63.8C27.74 64.46 27.72 65.06 27.68 65.56C27.58 67.16 26.8 67.92 25.66 67.92C24.44 67.92 23.6 67 23.78 65.24C23.78 65.16 23.8 65.08 23.8 64.98C23.16 66.18 21.38 66.54 19.46 66.54C16.52 66.54 14.76 65.88 14.42 64.42C14.2 63.38 14.14 62.12 14.42 61.18C14.78 60.16 15.08 59.5 16.68 59.5C17.92 59.5 18.94 59.44 20.02 59.34C20.32 59.3 20.32 58.74 20.02 58.76C19.02 58.9 18.12 58.96 16.92 58.96C14.92 58.96 14.42 58.44 14.42 57.36C14.42 56.24 15.26 55.54 17.04 55.28C18.48 55.06 19.54 55.06 20.56 55.22C21.92 55.38 22.72 55.76 23.08 56.98C23.36 58 23.36 59.4 23.08 60.24C22.86 60.8 22.58 60.96 21.82 60.98C20.08 60.98 18.58 61.12 17.26 61.56C16.94 61.62 17.14 62.16 17.44 62.04C18.4 61.74 19.96 61.46 20.98 61.44C22.62 61.4 23.52 61.82 23.88 62.84C23.92 61.18 23.9 59.36 23.8 58.2C23.64 56.24 24.44 55.34 25.66 55.34C26.8 55.34 27.58 56.12 27.68 57.7C27.7 58.16 27.72 58.74 27.74 59.36L28.54 59.44C28.52 58.92 28.5 58.44 28.46 58.04C28.28 56.06 29.1 55.12 30.34 55.12C31.44 55.12 32.26 55.92 32.36 57.56C32.46 59.64 32.48 63.56 32.36 65.64C32.24 67.24 31.44 68.04 30.34 68.04C29.1 68.04 28.28 67.14 28.44 65.3C28.48 64.84 28.5 64.3 28.52 63.74L27.76 63.8ZM15.58 70C15.58 68.18 16.6 67.16 18.14 66.94C19.8 66.72 21.6 67.24 22.14 68.56C22.46 69.36 22.36 70.54 21.68 71.1C21.4 71.3 21.6 71.68 21.9 71.46C24.04 69.98 26.2 68.48 29.4 68.48C30.88 68.48 32.18 69 32.34 70.34C32.5 71.82 31.68 72.82 29.34 73.1C26.84 73.42 23.1 73.48 19.32 73.24C16.8 73.1 15.58 71.64 15.58 70Z" fill="url(#paint3_linear_2_13)"/>
<path d="M13.5767 35.0557C12.9246 35.3656 12.4881 35.5157 12.0334 35.8396C11.747 36.0119 11.9916 36.4318 12.3767 36.2664C15.4759 34.7695 19.5218 33.6662 21.2471 33.362C23.3743 32.9869 24.9286 33.3708 25.49 35.1727C25.8972 36.5144 25.5064 37.7531 23.4333 38.4354C19.7906 39.6139 14.5547 40.464 11.7394 40.668C8.66403 40.9178 7.10558 40.5102 6.34948 38.9864C5.5489 37.3485 5.11965 34.9141 5.30759 33.0775C5.50524 31.4342 6.57311 30.4417 8.52931 29.9262C10.2811 29.4955 18.7148 27.984 20.5041 27.766C22.4867 27.5383 23.7059 27.9569 23.9185 29.1623C24.1393 30.415 23.2717 31.2991 21.1918 31.6658L13.0376 33.1036C13.3503 33.6334 13.5796 34.519 13.5767 35.0557ZM13.45 46.3614C11.8817 46.5892 10.3288 46.7656 8.91345 46.8933C7.5454 47.0126 6.55145 46.2131 6.3014 44.795C6.09302 43.6132 6.70355 42.2383 8.07577 42.1426C13.2171 41.7234 19.7085 40.5301 24.8805 39.1794C26.2305 38.8195 27.2703 39.8791 27.4787 41.0608C27.7288 42.479 27.0682 43.5702 25.6946 43.9343C24.2973 44.3025 22.7971 44.6402 21.2692 44.9583C21.3984 45.2767 21.4929 45.6744 21.5762 46.1471C22.0472 48.8179 21.1615 49.0471 18.0653 49.5931C14.9691 50.139 14.0348 50.2307 13.5639 47.5599C13.4805 47.0872 13.4375 46.7048 13.45 46.3614Z" fill="url(#paint4_linear_2_13)"/>
<path d="M33.5628 33.6694C31.8374 33.3651 30.415 32.3101 30.5385 30.5041C30.687 28.5563 31.8894 27.4036 34.7172 27.5367C37.7384 27.6794 42.1429 28.4073 46.5599 29.4786C49.3003 30.108 50.4336 32.1113 50.0961 34.0257C49.6793 36.3893 48.2058 37.8354 46.4499 37.8426C44.4771 37.8359 42.6571 37.1007 42.2356 35.3448C41.9588 34.1506 42.2783 32.891 43.3738 32.2068C43.8186 31.8953 43.5697 31.5102 43.1694 31.7077C40.3153 33.1053 37.1081 34.2945 33.5628 33.6694ZM30.277 39.8649C28.9465 39.5328 28.2484 38.6543 28.4985 37.2361C28.7069 36.0544 29.7133 35.1839 31.0355 35.5633C36.0143 36.9042 42.5224 38.003 47.8403 38.5264C49.232 38.6499 49.8842 39.7885 49.6758 40.9703C49.4257 42.3884 48.4693 42.9752 47.0581 42.8239C41.7597 42.3283 35.2558 41.2058 30.277 39.8649ZM27.9989 44.2154C28.3907 41.9937 30.0186 40.916 31.8176 40.9408C33.739 40.9628 35.1474 41.8204 35.8219 43.1091C36.3531 44.1044 35.7347 45.6769 34.724 46.1567C34.3751 46.3389 34.5322 46.8296 34.9326 46.6322C37.763 45.2304 41.2844 43.7798 44.8297 44.4049C46.5787 44.7133 47.9831 45.5946 47.911 47.3853C47.7625 49.3331 46.5615 50.3398 43.7378 50.1831C40.7167 50.0403 36.0285 49.2624 31.6546 48.2231C28.8989 47.5422 27.6572 46.1535 27.9989 44.2154Z" fill="url(#paint5_linear_2_13)"/>
<path d="M79.5628 33.6694C77.8374 33.3651 76.415 32.3101 76.5385 30.5041C76.687 28.5563 77.8894 27.4036 80.7172 27.5367C83.7384 27.6794 88.1429 28.4073 92.5599 29.4786C95.3003 30.108 96.4336 32.1113 96.0961 34.0257C95.6793 36.3893 94.2058 37.8354 92.4499 37.8426C90.4771 37.8359 88.6571 37.1007 88.2356 35.3448C87.9588 34.1506 88.2783 32.891 89.3738 32.2068C89.8186 31.8953 89.5697 31.5102 89.1694 31.7077C86.3153 33.1053 83.1081 34.2945 79.5628 33.6694ZM76.277 39.8649C74.9465 39.5328 74.2484 38.6543 74.4985 37.2361C74.7069 36.0544 75.7133 35.1839 77.0355 35.5633C82.0143 36.9042 88.5224 38.003 93.8403 38.5264C95.232 38.6499 95.8842 39.7885 95.6758 40.9703C95.4257 42.3884 94.4693 42.9752 93.0581 42.8239C87.7597 42.3283 81.2558 41.2058 76.277 39.8649ZM73.9989 44.2154C74.3907 41.9937 76.0186 40.916 77.8176 40.9408C79.739 40.9628 81.1474 41.8204 81.8219 43.1091C82.3531 44.1044 81.7347 45.6769 80.724 46.1567C80.3751 46.3389 80.5322 46.8296 80.9326 46.6322C83.763 45.2304 87.2844 43.7798 90.8297 44.4049C92.5787 44.7133 93.9831 45.5946 93.911 47.3853C93.7625 49.3331 92.5615 50.3398 89.7378 50.1831C86.7167 50.0403 82.0285 49.2624 77.6546 48.2231C74.8989 47.5422 73.6572 46.1535 73.9989 44.2154Z" fill="url(#paint6_linear_2_13)"/>
<path d="M59.5767 35.0557C58.9246 35.3656 58.4881 35.5157 58.0334 35.8396C57.747 36.0119 57.9916 36.4318 58.3767 36.2664C61.4759 34.7695 65.5218 33.6662 67.2471 33.362C69.3743 32.9869 70.9286 33.3708 71.49 35.1727C71.8972 36.5144 71.5064 37.7531 69.4333 38.4354C65.7906 39.6139 60.5547 40.464 57.7394 40.668C54.664 40.9178 53.1056 40.5102 52.3495 38.9864C51.5489 37.3485 51.1196 34.9141 51.3076 33.0775C51.5052 31.4342 52.5731 30.4417 54.5293 29.9262C56.2811 29.4955 64.7148 27.984 66.5041 27.766C68.4867 27.5383 69.7059 27.9569 69.9185 29.1623C70.1393 30.415 69.2717 31.2991 67.1918 31.6658L59.0376 33.1036C59.3503 33.6334 59.5796 34.519 59.5767 35.0557ZM59.45 46.3614C57.8817 46.5892 56.3288 46.7656 54.9135 46.8933C53.5454 47.0126 52.5515 46.2131 52.3014 44.795C52.093 43.6132 52.7035 42.2383 54.0758 42.1426C59.2171 41.7234 65.7085 40.5301 70.8805 39.1794C72.2305 38.8195 73.2703 39.8791 73.4787 41.0608C73.7288 42.479 73.0682 43.5702 71.6946 43.9343C70.2973 44.3025 68.7971 44.6402 67.2692 44.9583C67.3984 45.2767 67.4929 45.6744 67.5762 46.1471C68.0472 48.8179 67.1615 49.0471 64.0653 49.5931C60.9691 50.139 60.0348 50.2307 59.5639 47.5599C59.4805 47.0872 59.4375 46.7048 59.45 46.3614Z" fill="url(#paint7_linear_2_13)"/>
<defs>
<linearGradient id="paint0_linear_2_13" x1="52.5" y1="50" x2="52.5" y2="79" gradientUnits="userSpaceOnUse">
<stop stop-color="#27D6B6"/>
<stop offset="1" stop-color="#27D6B6" stop-opacity="0.5"/>
</linearGradient>
<linearGradient id="paint1_linear_2_13" x1="52.5" y1="50" x2="52.5" y2="79" gradientUnits="userSpaceOnUse">
<stop stop-color="#FFA928"/>
<stop offset="1" stop-color="#FFA928" stop-opacity="0.5"/>
</linearGradient>
<linearGradient id="paint2_linear_2_13" x1="52.5" y1="50" x2="52.5" y2="79" gradientUnits="userSpaceOnUse">
<stop stop-color="#3E68FF"/>
<stop offset="1" stop-color="#3E68FF" stop-opacity="0.5"/>
</linearGradient>
<linearGradient id="paint3_linear_2_13" x1="52.5" y1="50" x2="52.5" y2="79" gradientUnits="userSpaceOnUse">
<stop stop-color="#FF0000"/>
<stop offset="1" stop-color="#FF0000" stop-opacity="0.5"/>
</linearGradient>
<linearGradient id="paint4_linear_2_13" x1="13.3253" y1="21.9969" x2="19.2293" y2="55.4804" gradientUnits="userSpaceOnUse">
<stop stop-color="#FF002E"/>
<stop offset="1" stop-color="#F417C4" stop-opacity="0.5"/>
</linearGradient>
<linearGradient id="paint5_linear_2_13" x1="42.2293" y1="21.997" x2="36.3253" y2="55.4804" gradientUnits="userSpaceOnUse">
<stop stop-color="#FF002E"/>
<stop offset="1" stop-color="#F417C4" stop-opacity="0.5"/>
</linearGradient>
<linearGradient id="paint6_linear_2_13" x1="88.2293" y1="21.997" x2="82.3253" y2="55.4804" gradientUnits="userSpaceOnUse">
<stop stop-color="#FF002E"/>
<stop offset="1" stop-color="#F417C4" stop-opacity="0.5"/>
</linearGradient>
<linearGradient id="paint7_linear_2_13" x1="59.3253" y1="21.9969" x2="65.2293" y2="55.4804" gradientUnits="userSpaceOnUse">
<stop stop-color="#FF002E"/>
<stop offset="1" stop-color="#F417C4" stop-opacity="0.5"/>
</linearGradient>
</defs>
</svg>
